HIERARCHY
ROOT Hips
{
	OFFSET 0.00 0.00 0.00
	CHANNELS 6 Xposition Yposition Zposition Yrotation Xrotation Zrotation
	JOINT Spine
	{
		OFFSET	0.0000	9.2263	1.5771
		CHANNELS 3 Xrotation Yrotation Zrotation
		JOINT Spine1
		{
			OFFSET	0.0000	16.2540	-0.1656
			CHANNELS 3 Xrotation Yrotation Zrotation
			JOINT Spine2
			{
				OFFSET	0.0000	13.6396	-1.2923
				CHANNELS 3 Xrotation Yrotation Zrotation
				JOINT Neck
				{
					OFFSET	0.0000	13.8774	-4.3542
					CHANNELS 3 Xrotation Yrotation Zrotation
					JOINT Neck1
					{
						OFFSET	0.0000	4.3400	0.9269
						CHANNELS 3 Xrotation Yrotation Zrotation
						JOINT Head
						{
							OFFSET	0.0000	4.0266	0.8585
							CHANNELS 3 Xrotation Yrotation Zrotation
							End Site
							{
								OFFSET 0.0000 23.0297 0.1231
							}
						}
					}
				}
				JOINT LeftShoulder
				{
					OFFSET	6.1442	10.1870	-3.7932
					CHANNELS 3 Zrotation Xrotation Yrotation
					JOINT LeftArm
					{
						OFFSET	12.3191	-1.1130	-1.7935
						CHANNELS 3 Zrotation Xrotation Yrotation
						JOINT LeftForeArm
						{
							OFFSET	27.6870	0.0000	0.0000
							CHANNELS 3 Xrotation Zrotation Yrotation
							JOINT LeftHand
							{
								OFFSET	27.8738	0.0000	0.0000
								CHANNELS 3 Zrotation Yrotation Xrotation
								End Site
								{
									OFFSET	10.0000	0.0000	0.0000
								}
							}
						}
					}
				}
				JOINT RightShoulder
				{
					OFFSET	-6.1402	10.1870	-3.7932
					CHANNELS 3 Zrotation Xrotation Yrotation
					JOINT RightArm
					{
						OFFSET	-12.3231	-1.1130	-1.7935
						CHANNELS 3 Zrotation Xrotation Yrotation
						JOINT RightForeArm
						{
							OFFSET	-27.6870	0.0000	0.0000
							CHANNELS 3 Xrotation Zrotation Yrotation
							JOINT RightHand
							{
								OFFSET	-27.8738	0.0000	0.0000
								CHANNELS 3 Zrotation Yrotation Xrotation
								End Site
								{
									OFFSET	-10.0000	0.0000	0.0000
								}
							}
						}
					}
				}
			}
		}
	}
	JOINT LeftUpLeg
	{
		OFFSET	9.6338	-3.2733	0.0000
		CHANNELS 3 Xrotation Yrotation Zrotation
		JOINT LeftLeg
		{
			OFFSET	0.0000	-41.7300	-1.7300
			CHANNELS 3 Xrotation Yrotation Zrotation
			JOINT LeftFoot
			{
				OFFSET	0.0126	-39.1900	-0.8477
				CHANNELS 3 Xrotation Yrotation Zrotation
				JOINT LeftToeBase
				{
					OFFSET	-0.1833	-12.1931	8.2823
					CHANNELS 3 Xrotation Yrotation Zrotation
					End Site
					{
						OFFSET 0.0000 0.0000 10.1681
					}
				}
			}
		}
	}
	JOINT RightUpLeg
	{
		OFFSET	-9.6338	-3.2733	0.0000
		CHANNELS 3 Xrotation Yrotation Zrotation
		JOINT RightLeg
		{
			OFFSET	0.0000	-41.7300	-1.7300
			CHANNELS 3 Xrotation Yrotation Zrotation
			JOINT RightFoot
			{
				OFFSET	0.0126	-39.1900	-0.8477
				CHANNELS 3 Xrotation Yrotation Zrotation
				JOINT RightToeBase
				{
					OFFSET	-0.1833	-12.1931	8.2823
					CHANNELS 3 Xrotation Yrotation Zrotation
					End Site
					{
						OFFSET 0.0032 0.0000 10.1681
					}
				}
			}
		}
	}
}
MOTION
Frames: 8
Frame Time: 0.0333333
-0.3648	93.6805	0.2794	-2.1541	-2.1924	-3.0668	3.6437	2.1187	-3.0215	3.1893	0.2879	1.3245	3.1828	0.3146	1.3333	-5.5116	0.1392	-1.1852	0	0	0	-1.8189	-6.0024	7.6886	-7.1017	0.8122	-0.2753	-70.4312	20.5253	-5.8421	0	0	-19.4244	-10.2485	7.6069	-10.5284																																														5.5685	0.7096	2.3503	71.0507	12.1495	5.7395	0	0	13.8376	10.3454	-1.1966	-10.072																																														-14.4188	10.1249	3.7265	31.1232	10.6721	8.0489	-11.258	27.8701	-9.3803	-4.5895	0	0	-14.1616	-5.2479	-3.4282	23.9065	-10.0282	-2.7598	-4.3563	-12.8292	9.025	-4.2768	0	0
-0.3694	93.6845	0.272	-2.1349	-2.201	-3.0784	3.6953	2.1323	-3.0251	3.1536	0.2894	1.3087	3.1471	0.316	1.3174	-5.575	0.1438	-1.1109	0	0	0	-1.758	-6.1048	7.8862	-7.0731	0.8205	-0.3107	-70.0289	20.8119	-6.3226	0	0	-19.7787	-10.0605	7.5347	-10.8351																																														5.6262	0.7066	2.3029	71.0079	12.2518	5.8306	0	0	13.8032	10.3827	-1.1937	-10.0401																																														-14.4188	10.1302	3.7511	31.1184	10.6712	8.0378	-11.2542	27.8354	-9.3735	-4.5906	0	0	-14.1329	-5.2455	-3.4109	23.8684	-10.0299	-2.7574	-4.3355	-12.854	9.0181	-4.2715	0	0
-0.3731	93.6879	0.2616	-2.1083	-2.2154	-3.0944	3.7614	2.1424	-3.0288	3.1099	0.2905	1.2922	3.1034	0.3168	1.3008	-5.6032	0.141	-1.0575	0	0	0	-1.666	-6.198	8.0471	-7.1309	0.8339	-0.3487	-69.6632	21.0542	-6.4585	0	0	-20.2102	-9.8343	7.5303	-11.0911																																														5.6694	0.7023	2.2623	70.9493	12.3781	5.9078	0	0	13.7836	10.4352	-1.1851	-10.0109																																														-14.4242	10.1454	3.7956	31.1289	10.6686	8.0059	-11.2643	27.776	-9.3538	-4.5924	0	0	-14.097	-5.241	-3.3875	23.8276	-10.0319	-2.758	-4.311	-12.8893	9.0136	-4.2684	0	0
-0.3743	93.6906	0.2484	-2.0618	-2.236	-3.1135	3.8323	2.1465	-3.0266	3.0602	0.2907	1.274	3.0538	0.3167	1.2825	-5.5999	0.13	-1.0444	0	0	0	-1.5404	-6.2896	8.161	-7.3432	0.8564	-0.3931	-69.2253	21.1995	-6.3743	0	0	-20.7701	-9.7135	7.4849	-11.3565																																														5.6862	0.7009	2.2517	70.8727	12.5457	5.9252	0	0	13.8987	10.5103	-1.2224	-9.9877																																														-14.4371	10.1706	3.8588	31.157	10.6644	7.9511	-11.2915	27.6797	-9.3172	-4.5947	0	0	-14.0518	-5.235	-3.3603	23.7852	-10.0347	-2.7646	-4.2829	-12.946	9.0164	-4.2667	0	0
-0.3663	93.6917	0.231	-1.9898	-2.2508	-3.1176	3.898	2.1442	-3.0036	3.0056	0.29	1.2431	2.9993	0.3155	1.2513	-5.5532	0.116	-1.0951	0	0	0	-1.369	-6.4038	8.2141	-7.7731	0.8881	-0.4284	-68.6205	21.2155	-6.1387	0	0	-21.4921	-9.7559	7.3486	-11.6988																																														5.6664	0.7055	2.2991	70.7851	12.7594	5.8082	0	0	14.3636	10.6279	-1.3824	-9.9759																																														-14.4556	10.186	3.8933	31.1815	10.6605	7.9003	-11.3178	27.5748	-9.2718	-4.5971	0	0	-14.0223	-5.2318	-3.3533	23.7609	-10.0375	-2.7824	-4.2572	-13.0211	9.0358	-4.2666	0	0
-0.3396	93.6883	0.2066	-1.9025	-2.2456	-3.0761	3.9529	2.1307	-2.9321	2.9445	0.2876	1.1743	2.9385	0.3121	1.1823	-5.4561	0.1055	-1.2279	0	0	0	-1.1532	-6.5805	8.1882	-8.4419	0.9236	-0.4258	-67.8149	21.0907	-5.7317	0	0	-22.3659	-9.9111	7.2012	-12.0721																																														5.5512	0.716	2.467	70.7533	13.0609	5.185	0	0	16.3026	10.848	-2.011	-9.9989																																														-14.4766	10.1698	3.8343	31.1822	10.659	7.8795	-11.326	27.5135	-9.2232	-4.5987	0	0	-14.0549	-5.2419	-3.4102	23.7997	-10.0375	-2.814	-4.2498	-13.0879	9.0806	-4.2713	0	0
-0.284	93.6793	0.1782	-1.8116	-2.2194	-2.965	3.9824	2.0912	-2.7664	2.8786	0.2815	1.0323	2.8733	0.3037	1.04	-5.3174	0.1002	-1.4513	0	0	0	-0.9169	-6.8608	8.0665	-9.2891	0.957	-0.3784	-66.8758	20.8197	-5.1487	0	0	-23.2325	-10.1136	7.0989	-12.3517																																														5.2688	0.7157	2.683	70.8183	13.7052	3.9447	0	0	20.221	11.0732	-3.1511	-10.0286																																														-14.4821	10.1155	3.6393	31.142	10.6604	7.8956	-11.3116	27.5252	-9.1675	-4.5984	0	0	-14.1708	-5.2767	-3.5674	23.9312	-10.033	-2.8618	-4.2736	-13.1178	9.1599	-4.2845	0	0
-0.1931	93.6702	0.16	-1.7209	-2.1773	-2.797	3.9483	2.0108	-2.4461	2.8164	0.2694	0.7859	2.8123	0.2878	0.7933	-5.1462	0.0981	-1.7634	0	0	0	-0.6821	-7.2597	7.8439	-10.1731	0.9916	-0.3287	-65.9697	20.4084	-4.4613	0	0	-23.8061	-10.3167	6.8998	-12.5604																																														4.7634	0.6827	2.8066	70.9002	15.2442	2.2488	0	0	26.0169	11.1302	-4.547	-10.1348																																														-14.4492	10.0291	3.3187	31.0412	10.6647	7.9473	-11.2789	27.6032	-9.1016	-4.5955	0	0	-14.3251	-5.3253	-3.8044	24.0939	-10.0284	-2.9383	-4.3035	-13.1168	9.2829	-4.3067	0	0
